<svg xmlns="http://www.w3.org/2000/svg" xmlns:xlink="http://www.w3.org/1999/xlink" viewBox="0,0,256,256" width="64px" height="64px"><g fill="none" fill-rule="nonzero" stroke="none" stroke-width="1" stroke-linecap="butt" stroke-linejoin="miter" stroke-miterlimit="10" stroke-dasharray="" stroke-dashoffset="0" font-family="none" font-weight="none" font-size="none" text-anchor="none" style="mix-blend-mode: normal"><g transform="scale(8,8)"><path d="M31.414,28.586l-9.648,-9.648c1.213,-1.706 2,-3.736 2.183,-5.938h-4.019c-0.495,3.94 -3.859,7 -7.931,7c-4.072,0 -7.436,-3.06 -7.931,-7h-4.017c0.511,6.15 5.669,11 11.949,11c2.588,0 4.979,-0.833 6.939,-2.233l9.646,9.647z" fill="#ff0000"></path><path d="M12,4c4.072,0 7.436,3.06 7.931,7h4.019c-0.512,-6.15 -5.67,-11 -11.95,-11c-6.28,0 -11.438,4.85 -11.949,11h4.019c0.494,-3.94 3.858,-7 7.93,-7z" fill="#000000"></path></g></g></svg>