<svg xmlns="http://www.w3.org/2000/svg"  viewBox="0 0 16 16" width="32px" height="32px"><path d="M 12.455078 1.0019531 C 9.5860781 1.2629531 7.7501406 2.5392969 6.6191406 3.7792969 L 4.9160156 1.2226562 C 4.8080156 1.0606562 4.617875 0.97585938 4.421875 1.0058594 C 4.228875 1.0358594 4.0725312 1.1752812 4.0195312 1.3632812 C 3.9475312 1.6182812 2.2598594 7.6166406 2.0058594 9.4316406 C 1.5568594 12.639641 4.0707344 14.792812 4.1777344 14.882812 C 4.2687344 14.958812 4.382 15 4.5 15 L 8.5 15 C 10.667 15 11.725219 11.581812 11.949219 10.757812 C 12.779219 9.9198125 15 7.575 15 6.5 C 15 6.269 14.891172 6.058875 14.701172 5.921875 C 14.215172 5.571875 12.833234 5.7727656 11.365234 6.1347656 C 11.875234 5.5177656 12.893203 4.5626094 14.658203 3.9746094 L 14.34375 3.0253906 C 13.33375 3.3613906 12.555547 3.8087656 11.935547 4.2597656 L 12.964844 1.6855469 C 13.028844 1.5245469 13.006344 1.3401719 12.902344 1.2011719 C 12.798344 1.0611719 12.624078 0.98595313 12.455078 1.0019531 z M 11.71875 2.109375 L 9.7441406 6.5820312 C 9.2381406 6.7340313 8.7567969 6.8863906 8.3417969 7.0253906 L 8.6582031 7.9746094 C 10.701203 7.2936094 13.136406 6.6868906 13.941406 6.7128906 C 13.673406 7.3388906 12.502484 8.7904844 11.146484 10.146484 C 11.082484 10.209484 11.037625 10.291906 11.015625 10.378906 C 10.779625 11.318906 9.811 14 8.5 14 L 4.6953125 14 C 4.3353125 13.649 3.3270625 12.536188 3.0390625 10.992188 C 3.5720625 10.970187 4 10.538 4 10 C 4 9.48 3.5997969 9.0665781 3.0917969 9.0175781 C 3.4067969 7.4165781 4.2424531 4.3115469 4.6894531 2.6855469 L 5.9648438 4.5976562 C 5.3168437 5.5136562 5.0503906 6.2647969 5.0253906 6.3417969 L 5.9746094 6.6582031 C 6.0296094 6.4962031 7.29875 2.903375 11.71875 2.109375 z M 8 10 A 1 1 0 0 0 8 12 A 1 1 0 0 0 8 10 z"/></svg>